<svg id="Capa_1" enable-background="new 0 0 512 512" height="512" viewBox="0 0 512 512" width="512" xmlns="http://www.w3.org/2000/svg"><path d="m497 0c-8.291 0-15 6.709-15 15v15h-31v-15c0-8.291-6.709-15-15-15h-360c-8.291 0-15 6.709-15 15v15h-31v-15c0-8.291-6.709-15-15-15s-15 6.709-15 15v121c0 8.291 6.709 15 15 15s15-6.709 15-15v-15h31v140.728l195 97.5 195-97.5v-140.728h31v15c0 8.291 6.709 15 15 15s15-6.709 15-15v-121c0-8.291-6.709-15-15-15zm-136 211c0 4.614-2.124 8.979-5.771 11.821-3.633 2.856-8.364 3.867-12.861 2.725l-35.757-8.936 8.936 35.757c1.128 4.482.117 9.229-2.725 12.861-2.843 3.648-7.208 5.772-11.822 5.772h-90c-4.614 0-8.979-2.124-11.821-5.771-2.842-3.633-3.853-8.379-2.725-12.861l8.936-35.757-35.757 8.936c-4.482 1.143-9.243.117-12.861-2.725-3.648-2.843-5.772-7.208-5.772-11.822v-91.201c0-4.673 2.168-9.067 5.874-11.909 3.706-2.813 8.525-3.735 13.037-2.578l35.347 9.551-8.804-35.229c-1.128-4.482-.117-9.229 2.725-12.861 2.842-3.649 7.207-5.773 11.821-5.773h90c4.614 0 8.979 2.124 11.821 5.771 2.842 3.633 3.853 8.379 2.725 12.861l-8.804 35.229 35.347-9.551c4.512-1.187 9.316-.249 13.037 2.578 3.706 2.842 5.874 7.236 5.874 11.909z"/><path d="m275.497 146.708c-3.794-3.735-5.332-9.185-4.043-14.341l10.327-41.367h-51.563l10.327 41.367c1.289 5.156-.249 10.605-4.043 14.341-3.794 3.706-9.346 5.083-14.414 3.779l-41.088-11.103v52.397l41.367-10.327c5.112-1.274 10.532.22 14.238 3.94 3.721 3.721 5.229 9.126 3.94 14.238l-10.326 41.368h51.563l-10.327-41.367c-1.289-5.112.22-10.518 3.94-14.238 3.735-3.721 9.199-5.215 14.238-3.94l41.367 10.326v-52.397l-41.089 11.104c-5.127 1.362-10.62-.059-14.414-3.78z"/><path d="m451 406c0-4.34 0-115.182 0-110.728l-188.291 94.146c-2.109 1.055-4.409 1.582-6.709 1.582s-4.6-.527-6.709-1.582l-188.291-94.146c0 19.072 0 113.884 0 110.728 0 8.291 6.709 15 15 15s15-6.709 15-15v-35.728l30 15v50.728c0 8.291 6.709 15 15 15s15-6.709 15-15v-35.728l30 15v50.728c0 8.291 6.709 15 15 15s15-6.709 15-15v-35.728l30 15v51.728c0 8.291 6.709 15 15 15s15-6.709 15-15v-51.728l30-15v35.728c0 8.291 6.709 15 15 15s15-6.709 15-15v-50.728l30-15v35.728c0 8.291 6.709 15 15 15s15-6.709 15-15v-50.728l30-15v35.728c0 8.291 6.709 15 15 15s15-6.709 15-15z"/></svg>