<svg id="Capa_1" enable-background="new 0 0 512 512" height="512" viewBox="0 0 512 512" width="512" xmlns="http://www.w3.org/2000/svg"><path d="m15 30h482v90h-482z" fill="#53433f"/><path d="m256 30h241v90h-241z" fill="#3e322e"/><path d="m271 437v60c0 8.399-6.599 15-15 15s-15-6.601-15-15v-60c0-8.401 6.599-15 15-15s15 6.599 15 15z" fill="#fdbf00"/><path d="m271 437v60c0 8.399-6.599 15-15 15v-90c8.401 0 15 6.599 15 15z" fill="#ff9100"/><g fill="#fdbf00"><path d="m196 482c-8.291 0-15-6.709-15-15v-60c0-8.291 6.709-15 15-15s15 6.709 15 15v60c0 8.291-6.709 15-15 15z"/><path d="m136 452c-8.291 0-15-6.709-15-15v-60c0-8.291 6.709-15 15-15s15 6.709 15 15v60c0 8.291-6.709 15-15 15z"/><path d="m75 422c-8.291 0-15-6.709-15-15v-60c0-8.291 6.709-15 15-15s15 6.709 15 15v60c0 8.291-6.709 15-15 15z"/></g><path d="m316 482c-8.291 0-15-6.709-15-15v-60c0-8.291 6.709-15 15-15s15 6.709 15 15v60c0 8.291-6.709 15-15 15z" fill="#ff9100"/><path d="m376 452c-8.291 0-15-6.709-15-15v-60c0-8.291 6.709-15 15-15s15 6.709 15 15v60c0 8.291-6.709 15-15 15z" fill="#ff9100"/><path d="m437 422c-8.291 0-15-6.709-15-15v-60c0-8.291 6.709-15 15-15s15 6.709 15 15v60c0 8.291-6.709 15-15 15z" fill="#ff9100"/><path d="m452 296.3v50.7c0 5.7-3.3 10.8-8.401 13.5l-181 90c-2.098.899-4.199 1.5-6.599 1.5s-4.501-.601-6.599-1.5l-181-90c-5.101-2.7-8.401-7.8-8.401-13.5v-50.7z" fill="#ffda2d"/><path d="m452 296.3v50.7c0 5.7-3.3 10.8-8.401 13.5l-181 90c-2.098.899-4.199 1.5-6.599 1.5v-155.7z" fill="#fdbf00"/><path d="m452 15v281.3l-189.401 94.2c-2.098.899-4.199 1.5-6.599 1.5s-4.501-.601-6.599-1.5l-189.401-94.2v-281.3c0-8.401 6.599-15 15-15h362c8.401 0 15 6.599 15 15z" fill="#ff641a"/><path d="m452 15v281.3l-189.401 94.2c-2.098.899-4.199 1.5-6.599 1.5v-392h181c8.401 0 15 6.599 15 15z" fill="#f03800"/><path d="m15 150c-8.291 0-15-6.709-15-15v-120c0-8.291 6.709-15 15-15s15 6.709 15 15v120c0 8.291-6.709 15-15 15z" fill="#725d57"/><path d="m497 150c-8.291 0-15-6.709-15-15v-120c0-8.291 6.709-15 15-15s15 6.709 15 15v120c0 8.291-6.709 15-15 15z" fill="#53433f"/><path d="m355 106.8c-3.6-2.701-8.399-3.6-12.9-2.401l-35.4 9.6 8.699-35.4c1.201-4.501.3-9.3-2.699-12.9-2.7-3.599-7.199-5.699-11.7-5.699h-90c-4.501 0-9 2.1-11.7 5.7-2.999 3.6-3.9 8.399-2.699 12.9l8.699 35.4-35.4-9.6c-4.501-1.199-9.3-.3-12.9 2.401-3.9 2.999-6 7.2-6 12.001v91.198c0 4.499 2.1 9 5.7 11.7 3.6 2.999 8.399 3.898 12.9 2.699l35.7-8.699-8.699 35.7c-1.201 4.499-.3 9.3 2.699 12.9 2.701 3.6 7.2 5.7 11.7 5.7h90c4.501 0 9-2.1 11.7-5.7 2.999-3.6 3.9-8.401 2.699-12.9l-8.699-35.7 35.7 8.699c4.501 1.199 9.3.3 12.9-2.699 3.6-2.701 5.7-7.202 5.7-11.7v-91.199c0-4.801-2.1-9.002-6-12.001z" fill="#f2f2f2"/><path d="m301 270h-45v-210h45c4.501 0 9 2.1 11.7 5.7 2.999 3.6 3.9 8.399 2.699 12.9l-8.699 35.4 35.4-9.6c4.501-1.199 9.3-.3 12.9 2.401 3.9 2.999 6 7.2 6 12.001v91.198c0 4.499-2.1 9-5.7 11.7-3.6 2.999-8.399 3.898-12.9 2.699l-35.7-8.699 8.699 35.7c1.201 4.499.3 9.3-2.699 12.9-2.7 3.6-7.199 5.7-11.7 5.7z" fill="#e7e7f2"/></svg>