<svg width="512" height="512" xmlns="http://www.w3.org/2000/svg">

 <g>
  <title>background</title>
  <rect fill="none" id="canvas_background" height="402" width="582" y="-1" x="-1"/>
 </g>
 <g>
  <title>Layer 1</title>
  <g id="svg_27">
   <circle id="svg_1" fill="#FF9E24" r="231" cy="256" cx="256"/>
   <circle id="svg_2" fill="#FFFFFF" r="187.208344" cy="256.902344" cx="256"/>
   <path id="svg_3" fill="#181818" d="m336.387238,203.488098c7.034088,-6.841568 7.034088,-17.931381 0,-24.772049c-7.034088,-6.841568 -18.435944,-6.841568 -25.469086,0l-68.285889,66.417038l25.469086,24.772034l68.285889,-66.417023z"/>
   <path id="svg_4" fill="#EE3840" d="m245.079651,252.041412l-101.30304,98.530548c-4.395615,4.275299 -4.395615,11.207123 0,15.483307c2.19873,2.136749 5.078415,3.20694 7.95903,3.20694c2.880615,0 5.762161,-1.069275 7.95903,-3.20694l101.30304,-98.530518l-15.91806,-15.483337z"/>
   <path id="svg_5" fill="#181818" d="m177.203796,155.491531c-7.034073,-6.841568 -18.435944,-6.841568 -25.46907,0c-7.034088,6.841583 -7.034088,17.931381 0,24.772049l92.163895,89.641541l25.469086,-24.772034l-92.16391,-89.641556z"/>
   <path id="svg_6" fill="#524E4D" d="m256,284.272247c-15.516357,0 -28.140045,-12.278198 -28.140045,-27.369904s12.623688,-27.369888 28.140045,-27.369888s28.140045,12.278183 28.140045,27.369888s-12.623688,27.369904 -28.140045,27.369904z"/>
   <g id="svg_7">
    <path id="svg_8" fill="#7A7674" d="m125.431595,267.850464l-16.883835,0c-6.216751,0 -11.256203,-4.902405 -11.256203,-10.94812s5.039452,-10.948151 11.256203,-10.948151l16.883835,0c6.216736,0 11.256195,4.902435 11.256195,10.948151s-5.039459,10.94812 -11.256195,10.94812z"/>
    <path id="svg_9" fill="#7A7674" d="m256,140.854614c-6.216766,0 -11.256195,-4.90242 -11.256195,-10.948135l0,-16.420853c0,-6.0457 5.039429,-10.948128 11.256195,-10.948128c6.216736,0 11.256195,4.902428 11.256195,10.948128l0,16.421768c0,6.0448 -5.039459,10.94722 -11.256195,10.94722z"/>
    <path id="svg_10" fill="#7A7674" d="m403.45224,267.850464l-16.88385,0c-6.216736,0 -11.256195,-4.902405 -11.256195,-10.94812s5.039459,-10.948151 11.256195,-10.948151l16.88385,0c6.216736,0 11.256195,4.902435 11.256195,10.948151s-5.039429,10.94812 -11.256195,10.94812z"/>
    <path id="svg_11" fill="#7A7674" d="m256,411.267212c-6.216766,0 -11.256195,-4.902466 -11.256195,-10.948151l0,-16.421753c0,-6.045715 5.039429,-10.94812 11.256195,-10.94812c6.216736,0 11.256195,4.902405 11.256195,10.94812l0,16.421753c0,6.045685 -5.039459,10.948151 -11.256195,10.948151z"/>
   </g>
   <g id="svg_12"/>
   <g id="svg_13"/>
   <g id="svg_14"/>
   <g id="svg_15"/>
   <g id="svg_16"/>
   <g id="svg_17"/>
   <g id="svg_18"/>
   <g id="svg_19"/>
   <g id="svg_20"/>
   <g id="svg_21"/>
   <g id="svg_22"/>
   <g id="svg_23"/>
   <g id="svg_24"/>
   <g id="svg_25"/>
   <g id="svg_26"/>
  </g>
 </g>
</svg>