<svg width="512" height="512" xmlns="http://www.w3.org/2000/svg">

 <g>
  <title>background</title>
  <rect fill="none" id="canvas_background" height="514" width="514" y="-1" x="-1"/>
 </g>
 <g>
  <title>Layer 1</title>
  <g id="flat">
   <path id="svg_1" fill="#7d411d" d="m282.379303,309.166656l175.86203,0a0,0 0 0 1 0,0l0,106.333344a0,0 0 0 1 0,0l-246.206879,0a0,0 0 0 1 0,0l0,0a70.344826,106.333328 0 0 1 70.344849,-106.333344z"/>
   <path id="svg_2" fill="#7d411d" d="m106.517227,309.166656l246.206894,0a0,0 0 0 1 0,0l0,106.333344a0,0 0 0 1 0,0l-175.862061,0a70.344826,106.333328 0 0 1 -70.344833,-106.333344l0,0a0,0 0 0 1 0,0z"/>
   <path id="svg_3" fill="#7d411d" d="m159.275848,202.833344l246.206879,0a0,0 0 0 1 0,0l0,106.333313a0,0 0 0 1 0,0l-175.862045,0a70.344826,106.333328 0 0 1 -70.344833,-106.333313l0,0a0,0 0 0 1 0,0z"/>
   <path id="svg_4" fill="#995023" d="m176.862061,96.5l175.862061,0a0,0 0 0 1 0,0l0,106.333344a0,0 0 0 1 0,0l-246.206894,0a0,0 0 0 1 0,0l0,0a70.344826,106.333328 0 0 1 70.344833,-106.333344z"/>
   <path id="svg_5" fill="#7d411d" d="m124.103439,202.833344l175.862076,0a0,0 0 0 1 0,0l0,106.333313a0,0 0 0 1 0,0l-246.206902,0a0,0 0 0 1 0,0l0,0a70.344826,106.333328 0 0 1 70.344826,-106.333313z"/>
   <path id="svg_6" fill="#995023" d="m71.344826,309.166656l175.862053,0a0,0 0 0 1 0,0l0,106.333344a0,0 0 0 1 0,0l-246.206869,0a0,0 0 0 1 0,0l0,0a70.344826,106.333328 0 0 1 70.344816,-106.333344z"/>
   <rect id="svg_7" fill="#7d411d" height="26.583333" width="79.137922" y="136.375004" x="159.275855"/>
   <rect id="svg_8" fill="#7d411d" height="26.583333" width="17.586205" y="136.375004" x="255.999982"/>
   <rect id="svg_9" fill="#703a1a" height="26.583333" width="70.34482" y="242.708334" x="97.724137"/>
   <rect id="svg_10" fill="#703a1a" height="26.583333" width="61.551717" y="242.708334" x="185.655162"/>
   <rect id="svg_11" fill="#7d411d" height="26.583333" width="158.275844" y="349.041664" x="44.965523"/>
   <path id="svg_12" fill="#b8774f" d="m511,415.5l-105.517273,0a0,0 0 0 1 0,0l0,-26.583344a-52.758614,-79.75 0 0 1 52.758636,-79.75l0,0a-52.758614,-79.75 0 0 1 52.758636,79.75l0,26.583344a0,0 0 0 1 0,0z"/>
   <path id="svg_13" fill="#b8774f" d="m405.482727,309.166595l0,0a-52.758614,-79.75 0 0 1 -52.758606,-79.749969l0,-26.583344a0,0 0 0 1 0,0l105.517212,0a0,0 0 0 1 0,0l0,26.583344a-52.758614,-79.75 0 0 1 -52.758606,79.749969z"/>
   <path id="svg_14" fill="#b8774f" d="m352.724152,309.166595l-105.517242,0a0,0 0 0 1 0,0l0,-26.583344a-52.758614,-79.75 0 0 1 52.758636,-79.749969l0,0a-52.758614,-79.75 0 0 1 52.758606,79.749969l0,26.583344a0,0 0 0 1 0,0z"/>
   <path id="svg_15" fill="#b8774f" d="m352.724121,96.5l0,0a52.758614,79.75 0 0 1 52.758606,79.75l0,26.583344a0,0 0 0 1 0,0l-105.517212,0a0,0 0 0 1 0,0l0,-26.583344a52.758614,79.75 0 0 1 52.758606,-79.75z"/>
   <path id="svg_16" fill="#b8774f" d="m352.724091,415.5l0,0a-52.758614,-79.75 0 0 1 -52.758606,-79.75l0,-26.583344a0,0 0 0 1 0,0l105.517212,0a0,0 0 0 1 0,0l0,26.583344a-52.758614,-79.75 0 0 1 -52.758606,79.75z"/>
   <path id="svg_17" fill="#b8774f" d="m299.965515,415.5l-105.517227,0a0,0 0 0 1 0,0l0,-26.583344a-52.758614,-79.75 0 0 1 52.758621,-79.75l0,0a-52.758614,-79.75 0 0 1 52.758606,79.75l0,26.583344a0,0 0 0 1 0,0z"/>
   <polygon id="svg_18" fill="#ab683f" points="468.599609375,415.5 488.3401184082031,380.99481201171875 475.03619384765625,363.6093444824219 458.9975280761719,391.6415100097656 445.5968933105469,363.4365234375 431.30804443359375,378.9479064941406 448.6744689941406,415.5 468.599609375,415.5 "/>
   <polygon id="svg_19" fill="#ab683f" points="363.6891174316406,202.83334350585938 383.2274169921875,163.1444091796875 369.11444091796875,147.26087951660156 353.4275817871094,179.14761352539062 340.44012451171875,147.154541015625 325.4391174316406,161.04434204101562 342.40985107421875,202.83334350585938 363.6891174316406,202.83334350585938 "/>
   <polygon id="svg_20" fill="#ab683f" points="313.5860290527344,309.1666564941406 288.77191162109375,258.193115234375 274.5182189941406,273.744384765625 291.7527770996094,309.1666564941406 313.5860290527344,309.1666564941406 "/>
   <polygon id="svg_21" fill="#ab683f" points="399.9782409667969,202.83334350585938 393.2163391113281,249.89913940429688 410.4244689941406,255.45504760742188 417.97772216796875,202.83334350585938 399.9782409667969,202.83334350585938 "/>
   <polygon id="svg_22" fill="#ab683f" points="257.565185546875,415.5 277.3056640625,380.99481201171875 264.0017395019531,363.6093444824219 247.96311950683594,391.6415100097656 234.56239318847656,363.4365234375 220.2736053466797,378.9479064941406 237.63999938964844,415.5 257.565185546875,415.5 "/>
   <polygon id="svg_23" fill="#ab683f" points="342.8934020996094,309.1666564941406 324.7884521484375,339.27227783203125 337.79339599609375,357.14959716796875 353.6825866699219,330.73907470703125 369.2463684082031,357.06982421875 382.36566162109375,339.35205078125 364.5156555175781,309.1666564941406 342.8934020996094,309.1666564941406 "/>
  </g>
 </g>
</svg>