<?xml version="1.0" encoding="iso-8859-1"?>
<!-- Generator: Adobe Illustrator 19.0.0, SVG Export Plug-In . SVG Version: 6.00 Build 0)  -->
<svg version="1.1" id="Layer_1" xmlns="http://www.w3.org/2000/svg" xmlns:xlink="http://www.w3.org/1999/xlink" x="0px" y="0px"
	 viewBox="0 0 491.52 491.52" style="enable-background:new 0 0 491.52 491.52;" xml:space="preserve">
<polygon style="fill:#F6C358;" points="145.6,307.62 18.237,307.62 0,413.724 163.837,413.724 "/>
<polygon style="fill:#FCD462;" points="145.6,307.62 18.237,307.62 0,413.724 115.384,376.426 "/>
<polygon style="fill:#F6C358;" points="308.983,307.62 181.619,307.62 163.383,413.724 327.22,413.724 "/>
<polygon style="fill:#FCD462;" points="308.983,307.62 181.619,307.62 163.383,413.724 278.767,376.426 "/>
<polygon style="fill:#F6C358;" points="473.283,307.62 345.92,307.62 327.683,413.724 491.52,413.724 "/>
<polygon style="fill:#FCD462;" points="473.283,307.62 345.92,307.62 327.683,413.724 443.067,376.426 "/>
<polygon style="fill:#F6C358;" points="227.291,192.708 99.929,192.708 81.691,298.812 245.528,298.812 "/>
<polygon style="fill:#FCD462;" points="227.291,192.708 99.929,192.708 81.691,298.812 197.075,261.513 "/>
<polygon style="fill:#F6C358;" points="391.591,192.708 264.229,192.708 245.991,298.812 409.828,298.812 "/>
<polygon style="fill:#FCD462;" points="391.591,192.708 264.229,192.708 245.991,298.812 361.376,261.513 "/>
<polygon style="fill:#F6C358;" points="309.441,77.796 182.079,77.796 163.841,183.9 327.678,183.9 "/>
<polygon style="fill:#FCD462;" points="309.441,77.796 182.079,77.796 163.841,183.9 279.225,146.601 "/>
<g>
</g>
<g>
</g>
<g>
</g>
<g>
</g>
<g>
</g>
<g>
</g>
<g>
</g>
<g>
</g>
<g>
</g>
<g>
</g>
<g>
</g>
<g>
</g>
<g>
</g>
<g>
</g>
<g>
</g>
</svg>
