<svg id="Capa_1" enable-background="new 0 0 512 512" height="512" viewBox="0 0 512 512" width="512" xmlns="http://www.w3.org/2000/svg"><path d="m46 166v60c0 8.291 6.709 15 15 15h390c8.291 0 15-6.709 15-15v-60c0-8.291-6.709-15-15-15h-30c-8.291 0-15 6.709-15 15v15h-60v-15c0-8.291-6.709-15-15-15h-30c-8.291 0-15 6.709-15 15v15h-60v-15c0-8.291-6.709-15-15-15h-30c-8.291 0-15 6.709-15 15v15h-60v-15c0-8.291-6.709-15-15-15h-30c-8.291 0-15 6.709-15 15z"/><path d="m256 391c-24.814 0-45 20.186-45 45v76h90v-76c0-24.814-20.186-45-45-45z"/><path d="m211 121c19.556 0 36.24 12.539 42.437 30h5.127c6.196-17.461 22.881-30 42.437-30h15v-30h15c8.291 0 15-6.709 15-15v-61c0-8.291-6.709-15-15-15h-30c-8.291 0-15 6.709-15 15v15h-60v-15c0-8.291-6.709-15-15-15h-30c-8.291 0-15 6.709-15 15v61c0 8.291 6.709 15 15 15h15v30z"/><path d="m61 361h60l-49.393-55.607c-5.859-5.858-15.355-5.858-21.215 0l-50.392 55.607z"/><path d="m440.393 305.393-49.393 55.607h121l-50.393-55.607c-5.859-5.858-15.355-5.858-21.214 0z"/><path d="m436 273.84v-2.84h-360v2.761c6.255 2.23 12.037 5.676 16.8 10.439l50.61 56.871c4.889 5.493 7.59 12.59 7.59 19.944v150.985h30v-71.565c0-39.225 28.138-75.051 67.159-79.034 44.854-4.579 82.841 30.661 82.841 74.599v76h30v-156.702c0-3.671 1.346-7.214 3.783-9.959l53.218-59.94c5.475-5.474 11.576-9.208 17.999-11.559zm-120 57.16h-120c-8.291 0-15-6.709-15-15s6.709-15 15-15h120c8.291 0 15 6.709 15 15s-6.709 15-15 15z"/><path d="m391 512h45v-76c0-8.286 6.716-15 15-15s15 6.714 15 15v76h30c8.284 0 16-6.716 16-15v-106h-121z"/><path d="m15 512h31v-76c0-8.286 6.716-15 15-15s15 6.714 15 15v76h45v-121h-121v106c0 8.284 6.716 15 15 15z"/></svg>