<svg width="512.001" height="512.001" xmlns="http://www.w3.org/2000/svg">

 <g>
  <title>background</title>
  <rect fill="none" id="canvas_background" height="402" width="582" y="-1" x="-1"/>
 </g>
 <g>
  <title>Layer 1</title>
  <g id="svg_18"/>
  <g id="svg_19"/>
  <g id="svg_20"/>
  <g id="svg_21"/>
  <g id="svg_22"/>
  <g id="svg_23"/>
  <g id="svg_24"/>
  <g id="svg_25"/>
  <g id="svg_26"/>
  <g id="svg_27"/>
  <g id="svg_28"/>
  <g id="svg_29"/>
  <g id="svg_30"/>
  <g id="svg_31"/>
  <g id="svg_32"/>
  <g id="svg_33">
   <path id="svg_1" fill="#C1C4C7" d="m26.174343,368.858459l-15.881502,-67.861053c-6.380486,-27.262726 8.088289,-55.099747 34.13555,-65.674423l65.058708,-26.413071c5.370926,-2.180099 10.323563,-5.26474 14.641724,-9.118393l72.262825,-64.49353c15.271866,-13.63028 36.704819,-18.088379 56.184601,-11.687851l157.748123,51.834442c20.02887,6.581223 36.785889,20.50943 46.858734,38.950592l39.022247,71.437164c9.559357,17.50116 9.319427,38.681702 -0.63559,55.963409l-20.104492,34.901215c-5.19046,9.010834 -14.829803,14.569214 -25.267975,14.569214l-395.657188,0c-13.540295,-0.001068 -25.29388,-9.286194 -28.365765,-22.407715z"/>
   <path id="svg_2" opacity="0.1" d="m170.183334,158.687698l-46.05558,41.103806c-4.318169,3.853638 -9.270798,6.938293 -14.641731,9.118393l-65.058712,26.413071c-26.04726,10.574677 -40.516037,38.411713 -34.13555,65.674438l15.8815,67.861053c3.070805,13.121521 14.825472,22.406647 28.364687,22.406647l197.291397,0c-76.470718,-53.442383 -94.716125,-176.077286 -81.646011,-232.577408z"/>
   <path id="svg_3" opacity="0.1" d="m320.416046,242.406448l55.116699,-6.731796c7.984528,-0.97551 15.403748,-4.609741 21.048126,-10.313324l37.312317,-37.695419c-7.087402,-5.260468 -15.02652,-9.414185 -23.569855,-12.221344l-157.748184,-51.834442c-8.119629,-2.668411 -16.575439,-3.423431 -24.786942,-2.439316l48.761047,97.733002c8.132629,16.298691 25.714355,25.71933 43.866791,23.50264z"/>
   <path id="svg_4" opacity="0.1" d="m115.681671,274.500458l-96.171009,-19.586594c-9.31078,12.953751 -13.070107,29.619217 -9.217821,46.082474l15.881502,67.861023c3.070805,13.121552 14.82547,22.406677 28.364685,22.406677l57.714069,0l24.153549,-82.581909c4.45433,-15.229614 -5.107224,-31.000214 -20.724976,-34.181671z"/>
   <path id="svg_5" opacity="0.1" d="m228.224899,391.265106l221.972397,0c4.746185,0 9.322662,-1.160522 13.395477,-3.261047l-25.11554,-50.445923c-10.881317,-21.857056 -37.484161,-30.832428 -59.481323,-20.068451l-150.771011,73.775421z"/>
   <g id="svg_6" opacity="0.1">
    <path id="svg_7" d="m188.769211,278.548798c-3.796066,0 -7.185745,-2.66626 -7.944534,-6.51239c-0.863632,-4.370972 1.997482,-8.611816 6.390213,-9.471161l32.303452,-6.319855c4.387329,-0.863663 8.654678,1.986511 9.518311,6.358582c0.863617,4.370941 -1.997482,8.611786 -6.390228,9.471161l-32.303436,6.319855c-0.529633,0.103241 -1.054947,0.153809 -1.573776,0.153809z"/>
    <path id="svg_8" d="m406.812592,301.719086c-1.467865,0 -2.953003,-0.395813 -4.288971,-1.227173l-33.870728,-21.064423c-3.79715,-2.360779 -4.951569,-7.33728 -2.57901,-11.115662s7.377075,-4.927032 11.170959,-2.565155l33.870758,21.064392c3.79715,2.360809 4.951569,7.337311 2.57901,11.115692c-1.538116,2.447906 -4.17981,3.792328 -6.882019,3.792328z"/>
    <path id="svg_9" d="m197.418488,239.793976c-0.812836,0 -1.638626,-0.12262 -2.454697,-0.380753l-36.86264,-11.644836c-4.267349,-1.348724 -6.628006,-5.883194 -5.273651,-10.12941c1.355438,-4.245148 5.91246,-6.5952 10.17981,-5.247543l36.86264,11.644836c4.267349,1.347656 6.628006,5.883194 5.273651,10.12941c-1.096024,3.435272 -4.286804,5.628296 -7.725113,5.628296z"/>
   </g>
  </g>
 </g>
</svg>