<svg id="Capa_1" enable-background="new 0 0 512 512" height="512" viewBox="0 0 512 512" width="512" xmlns="http://www.w3.org/2000/svg"><path d="m481 15c0-8.401-6.599-15-15-15h-37c-8.401 0-15 6.599-15 15v45h-60v-45c0-8.401-6.599-15-15-15h-38c-8.401 0-15 6.599-15 15v45h-60v-45c0-8.401-6.599-15-15-15h-37c-8.401 0-15 6.599-15 15v45h-60v-45c0-8.401-6.599-15-15-15h-38c-8.401 0-15 6.599-15 15v107l30 15-30 15v60l30 15-30 15v60l15 15-15 15v60l30 15-30 15v75c0 8.401 6.599 15 15 15h75l30-30v-165c0-57.9 47.1-105 105-105s105 47.1 105 105v165l30 30h75c8.401 0 15-6.599 15-15v-75l-30-15 30-15v-60l-15-15 15-15v-60l-30-15 30-15v-60l-30-15 30-15z" fill="#725d57"/><g fill="#53433f"><path d="m481 15c0-8.401-6.599-15-15-15h-37c-8.401 0-15 6.599-15 15v45h-60v-45c0-8.401-6.599-15-15-15h-38c-8.401 0-15 6.599-15 15v45h-30v152c57.9 0 105 47.1 105 105v165l30 30h75c8.401 0 15-6.599 15-15v-75l-30-15 30-15v-60l-15-15 15-15v-60l-30-15 30-15v-60l-30-15 30-15z"/><path d="m121 227c0-8.291-6.709-15-15-15h-75v30h75c8.291 0 15-6.709 15-15z"/><path d="m211 137c0-8.291-6.709-15-15-15h-165v30h165c8.291 0 15-6.709 15-15z"/></g><path d="m391 227c0 8.291 6.709 15 15 15h75v-30h-75c-8.291 0-15 6.709-15 15z" fill="#3e322e"/><path d="m406 317c0 8.291 6.709 15 15 15h60v-30h-60c-8.291 0-15 6.709-15 15z" fill="#3e322e"/><path d="m421 407c0 8.291 6.709 15 15 15h45v-30h-45c-8.291 0-15 6.709-15 15z" fill="#3e322e"/><path d="m91 407c0-8.291-6.709-15-15-15h-45v30h45c8.291 0 15-6.709 15-15z" fill="#53433f"/><path d="m106 317c0-8.291-6.709-15-15-15h-60v30h60c8.291 0 15-6.709 15-15z" fill="#53433f"/><path d="m331 137c0 8.291 6.709 15 15 15h135v-30h-135c-8.291 0-15 6.709-15 15z" fill="#3e322e"/><path d="m301 137c0 8.401-6.599 15-15 15h-30c-8.401 0-15-6.599-15-15s6.599-15 15-15h30c8.401 0 15 6.599 15 15z" fill="#53433f"/><path d="m286 152h-30v-30h30c8.401 0 15 6.599 15 15s-6.599 15-15 15z" fill="#3e322e"/><path d="m331 512h60v-60l-30-30-30 30z" fill="#cecee6"/><path d="m331 452h60v-60l-30-30-30 30z" fill="#e7e7f2"/><path d="m331 392h60v-60l-30-30-30 30z" fill="#cecee6"/><path d="m351.46 221.54-50.46 20.46 8.033 21.967c13.573 13.572 21.967 32.322 21.967 53.033v15h60v-15c0-37.28-15.11-71.03-39.54-95.46z" fill="#e7e7f2"/><path d="m121 452v60h60v-60l-35.625-30z" fill="#e7e7f2"/><path d="m181 392-30-30-30 30v60h60z" fill="#f2f2f2"/><path d="m181 332-30-30-30 30v60h60z" fill="#e7e7f2"/><path d="m121 317v15h60v-15c0-20.711 8.395-39.461 21.967-53.033l8.033-21.967-50.46-20.46c-24.43 24.43-39.54 58.18-39.54 95.46z" fill="#f2f2f2"/><path d="m160.54 221.54 42.427 42.427c13.572-13.573 32.322-21.967 53.033-21.967l30-30-30-30c-37.278 0-71.028 15.11-95.46 39.54z" fill="#e7e7f2"/><path d="m351.46 221.54c-24.43-24.43-58.18-39.54-95.46-39.54v60c20.711 0 39.461 8.394 53.033 21.967z" fill="#cecee6"/></svg>