<svg id="Capa_1" enable-background="new 0 0 512 512" height="512" viewBox="0 0 512 512" width="512" xmlns="http://www.w3.org/2000/svg"><path d="m211 347v165h90v-165c0-24.814-20.186-45-45-45s-45 20.186-45 45z"/><path d="m151 422h30v30h-30z"/><path d="m151 362h30v30h-30z"/><path d="m271 273.518c9.558 1.948 18.428 5.762 26.294 10.977l21.295-21.295c-13.705-10.267-29.888-17.117-47.589-19.684z"/><path d="m331 362h30v30h-30z"/><path d="m318.505 305.706c5.215 7.866 9.029 16.736 10.977 26.294h30.002c-2.567-17.701-9.417-33.884-19.684-47.589z"/><path d="m331 482h30v30h-30z"/><path d="m331 422h30v30h-30z"/><path d="m151 482h30v30h-30z"/><path d="m346 122h135v-107c0-8.291-6.709-15-15-15h-37.5c-8.291 0-14.5 6.709-14.5 15v46h-60v-46c0-8.291-7.209-15-15.5-15h-37.5c-8.291 0-15 6.709-15 15v46h-60v-46c0-8.291-6.709-15-15-15h-37c-8.291 0-15 6.709-15 15v46h-60v-46c0-8.291-6.709-15-15-15h-38c-8.291 0-15 6.709-15 15v107h165c8.291 0 15 6.709 15 15s-6.709 15-15 15h-165v60h75c8.291 0 15 6.709 15 15s-6.709 15-15 15h-75v60h60c8.291 0 15 6.709 15 15s-6.709 15-15 15h-60v60h45c8.291 0 15 6.709 15 15s-6.709 15-15 15h-45v75c0 8.291 6.709 15 15 15h75v-165c0-72.665 59.339-135 135-135 74.253 0 135 60.562 135 135v165h75c8.291 0 15-6.709 15-15v-75h-45c-8.291 0-15-6.709-15-15s6.709-15 15-15h45v-60h-60c-8.291 0-15-6.709-15-15s6.709-15 15-15h60v-60h-75c-8.291 0-15-6.709-15-15s6.709-15 15-15h75v-60h-135c-8.291 0-15-6.709-15-15s6.709-15 15-15zm-60 30h-30c-8.291 0-15-6.709-15-15s6.709-15 15-15h30c8.291 0 15 6.709 15 15s-6.709 15-15 15z"/><path d="m214.706 284.495c7.866-5.215 16.736-9.029 26.294-10.977v-30.002c-17.701 2.567-33.884 9.417-47.589 19.684z"/><path d="m152.516 332h30.002c1.948-9.558 5.762-18.428 10.977-26.294l-21.295-21.295c-10.267 13.705-17.117 29.888-19.684 47.589z"/></svg>