<svg id="Capa_1" enable-background="new 0 0 512 512" height="512" viewBox="0 0 512 512" width="512" xmlns="http://www.w3.org/2000/svg"><path d="m327.7 5.7c-2.7-3.6-7.199-5.7-11.7-5.7h-120c-4.501 0-9 2.1-11.7 5.7-2.999 3.6-3.9 8.399-2.699 12.9l10.499 42.4h128.1l10.199-42.4c1.202-4.501.301-9.3-2.699-12.9z"/><path d="m286 151h-60c-6.899 0-12.9-4.801-14.399-11.4l-19.501-78.6h-56.1c-8.401 0-15 6.599-15 15 0 8.399 6.599 15 15 15h15v121.599c-24 15.3-43.801 36-58.801 59.401h79.801c38.399 0 75.3 11.4 107.401 32.399 26.999 18.001 58.198 27.601 90.599 27.601h75.6c-11.7-48.6-41.7-91.8-84.6-119.401v-121.599h15c8.401 0 15-6.601 15-15 0-8.401-6.599-15-15-15h-55.8l-19.801 78.6c-1.499 6.599-7.5 11.4-14.399 11.4z"/><path d="m166 362c-8.276 0-15 6.724-15 15s6.724 15 15 15 15-6.724 15-15-6.724-15-15-15z"/><path d="m450.039 361h-79.957c-38.35 0-75.483-10.25-107.402-31.52-26.968-17.973-58.36-27.48-90.762-27.48h-95.627c-9.822 23.463-15.291 48.862-15.291 75 0 47.93 17.739 94.116 49.951 130.02 2.842 3.164 6.899 4.98 11.162 4.98h267.788c4.263 0 8.32-1.816 11.162-4.98 32.198-35.918 49.937-83.09 49.937-131.02 0-5.05-.571-10.01-.961-15zm-284.039 61c-24.814 0-45-20.186-45-45s20.186-45 45-45 45 20.186 45 45-20.186 45-45 45zm90 30c-8.284 0-15-6.716-15-15 0-8.286 6.716-15 15-15s15 6.714 15 15c0 8.284-6.716 15-15 15zm30-60c-8.284 0-15-6.716-15-15 0-8.286 6.716-15 15-15s15 6.714 15 15c0 8.284-6.716 15-15 15zm60 60c-8.284 0-15-6.716-15-15 0-8.286 6.716-15 15-15s15 6.714 15 15c0 8.284-6.716 15-15 15z"/></svg>