<svg id="Capa_1" enable-background="new 0 0 512 512" height="512" viewBox="0 0 512 512" width="512" xmlns="http://www.w3.org/2000/svg"><path d="m445.6 331-75.6 30-114-34.501-84-25.499-80.4-30c15-23.401 35.099-43.801 59.399-59.401v-136.599h210v136.599c42.901 27.601 73.201 70.501 84.601 119.401z" fill="#e7e7f2"/><path d="m445.6 331-75.6 30-114-34.501v-251.499h105v136.599c42.9 27.601 73.2 70.501 84.6 119.401z" fill="#cecee6"/><path d="m451 376c0 47.999-17.701 95.2-49.799 130.899-3.001 3.301-6.901 5.101-11.4 5.101h-267.602c-4.199 0-8.399-1.8-11.1-5.101-32.398-35.699-50.099-82.9-50.099-130.899 0-26.1 5.099-51.601 15-75 4.2-10.201 9.6-20.4 15.601-30h80.399c29.399 0 57.9 6.599 84 19.499 8.101 3.6 15.901 8.101 23.401 12.9 26.999 18.001 58.198 27.601 90.599 27.601h75.6c2.401 9.6 3.9 19.799 4.799 30 .301 4.799.601 9.899.601 15z" fill="#979fef"/><path d="m451 376c0 47.999-17.701 95.2-49.799 130.899-3.001 3.301-6.901 5.101-11.4 5.101h-133.801v-221.501c8.101 3.6 15.901 8.101 23.401 12.9 26.999 18.001 58.198 27.601 90.599 27.601h75.6c2.401 9.6 3.9 19.799 4.799 30 .301 4.799.601 9.899.601 15z" fill="#6b77e8"/><path d="m166 421c-24.814 0-45-20.186-45-45s20.186-45 45-45 45 20.186 45 45-20.186 45-45 45z" fill="#6b77e8"/><circle cx="346" cy="436" fill="#615ad3" r="15"/><circle cx="286" cy="376" fill="#615ad3" r="15"/><path d="m271 436c0 8.399-6.599 15-15 15s-15-6.601-15-15c0-8.401 6.599-15 15-15s15 6.599 15 15z" fill="#6b77e8"/><path d="m330.399 18.6-13.798 56.4h-121.202l-13.799-56.4c-1.201-4.501-.3-9.3 2.699-12.9 2.701-3.6 7.2-5.7 11.701-5.7h120c4.501 0 9 2.1 11.7 5.7 3 3.6 3.901 8.399 2.699 12.9z" fill="#725d57"/><path d="m316.601 75h-60.601v-75h60c4.501 0 9 2.1 11.7 5.7 2.999 3.6 3.9 8.399 2.699 12.9z" fill="#53433f"/><path d="m271 436c0 8.399-6.599 15-15 15v-30c8.401 0 15 6.599 15 15z" fill="#615ad3"/><path d="m316.601 75-16.201 63.6c-1.5 6.599-7.5 11.4-14.399 11.4h-60c-6.899 0-12.9-4.801-14.399-11.4l-16.203-63.6z" fill="#cecee6"/><path d="m316.601 75-16.201 63.6c-1.5 6.599-7.5 11.4-14.399 11.4h-30v-75z" fill="#adadcc"/><path d="m391 75c0 8.399-6.599 15-15 15h-240c-8.401 0-15-6.601-15-15 0-8.401 6.599-15 15-15h240c8.401 0 15 6.599 15 15z" fill="#f2f2f2"/><path d="m391 75c0 8.399-6.599 15-15 15h-120v-30h120c8.401 0 15 6.599 15 15z" fill="#e7e7f2"/></svg>