<svg id="Capa_1" enable-background="new 0 0 512 512" height="512" viewBox="0 0 512 512" width="512" xmlns="http://www.w3.org/2000/svg"><path d="m271 31h-30c-8.291 0-15 6.709-15 15v195h60v-195c0-8.291-6.709-15-15-15z"/><path d="m30 286v30c0 8.291 6.709 15 15 15h142.577c4.644 0 8.965 2.109 11.821 5.771 2.871 3.662 3.867 8.364 2.739 12.876l-20.684 82.72c-1.714 6.812 1.553 13.901 7.837 17.051l60 30c2.11 1.055 4.41 1.582 6.71 1.582s4.6-.527 6.709-1.582l60-30c6.284-3.149 9.551-10.239 7.837-17.051l-20.684-82.72c-1.128-4.512-.132-9.214 2.739-12.876 2.856-3.662 7.178-5.771 11.821-5.771h142.578c8.291 0 15-6.709 15-15v-30c0-8.291-6.709-15-15-15h-422c-8.291 0-15 6.709-15 15z"/><path d="m497 31c-8.291 0-15 6.709-15 15 0 24.814-20.186 45-45 45h-27.543c24.954 23.073 44.645 51.634 57.162 83.849 26.655-11.515 45.381-38.02 45.381-68.849v-60c0-8.291-6.709-15-15-15z"/><path d="m45.381 174.849c12.517-32.215 32.208-60.776 57.162-83.849h-27.543c-24.814 0-45-20.186-45-45 0-8.291-6.709-15-15-15s-15 6.709-15 15v60c0 30.829 18.726 57.334 45.381 68.849z"/><path d="m316 241h134.781c-6.169-80.048-61.076-146.667-134.781-170.497z"/><path d="m196 241v-170.497c-73.705 23.83-128.612 90.449-134.781 170.497z"/></svg>