<svg id="Capa_1" enable-background="new 0 0 512 512" height="512" viewBox="0 0 512 512" width="512" xmlns="http://www.w3.org/2000/svg"><path d="m75 91c-24.814 0-45-20.186-45-45 0-8.291-6.709-15-15-15s-15 6.709-15 15v60c0 41.353 33.647 75 75 75h24.082l56.382-90z" fill="#f2f2f2"/><path d="m497 31c-8.291 0-15 6.709-15 15 0 24.814-20.186 45-45 45h-81.464l57.382 90h24.082c41.353 0 75-33.647 75-75v-60c0-8.291-6.709-15-15-15z" fill="#e7e7f2"/><path d="m452 256v45h-392v-45c0-107.701 88.299-195 196-195 54 0 103.599 21.899 138.999 56.999 35.102 35.4 57.001 84.001 57.001 138.001z" fill="#ff9100"/><path d="m452 256v45h-196v-240c54 0 103.599 21.899 138.999 56.999 35.102 35.4 57.001 84.001 57.001 138.001z" fill="#ff641a"/><path d="m467 271h-181v-225c0-8.401-6.599-15-15-15h-30c-8.401 0-15 6.599-15 15v225h-181c-8.401 0-15 6.599-15 15v30c0 8.399 6.599 15 15 15h142.599c4.501 0 9.001 2.1 11.7 5.7 3.001 3.6 3.9 8.399 2.701 12.9l-20.4 82.8c-1.8 6.899 1.5 13.799 7.8 17.1l60 30c2.098.899 4.199 1.5 6.599 1.5 2.401 0 4.501-.601 6.599-1.5l60-30c6.301-3.302 9.6-10.201 7.8-17.1l-20.398-82.8c-1.199-4.501-.3-9.3 2.701-12.9 2.699-3.6 7.2-5.7 11.7-5.7h142.599c8.401 0 15-6.601 15-15v-30c0-8.401-6.599-15-15-15z" fill="#fdbf00"/><path d="m467 271h-181v-225c0-8.401-6.599-15-15-15h-15v450c2.401 0 4.501-.601 6.599-1.5l60-30c6.301-3.302 9.6-10.201 7.8-17.1l-20.399-82.8c-1.199-4.501-.3-9.3 2.701-12.9 2.699-3.6 7.2-5.7 11.7-5.7h142.599c8.401 0 15-6.601 15-15v-30c0-8.401-6.599-15-15-15z" fill="#ff9100"/></svg>